<svg width="22" height="22" viewBox="0 0 22 22" fill="none" xmlns="http://www.w3.org/2000/svg">
<path d="M20.7628 19.2372L20.7625 19.2375L20.7679 19.2416L20.7689 19.2423C20.8681 19.3421 20.9469 19.4604 21.0007 19.5904C21.055 19.7215 21.0829 19.8619 21.0829 20.0037C21.0829 20.1456 21.055 20.286 21.0007 20.4171C20.9464 20.5481 20.8669 20.6672 20.7666 20.7675C20.6663 20.8678 20.5472 20.9473 20.4162 21.0016C20.2852 21.0559 20.1447 21.0838 20.0029 21.0838C19.861 21.0838 19.7206 21.0559 19.5895 21.0016C19.4585 20.9473 19.3394 20.8678 19.2391 20.7675L14.7832 16.3106L14.7541 16.2815L14.7215 16.3066C12.9914 17.6342 10.821 18.2541 8.65072 18.0404C6.48039 17.8267 4.47261 16.7954 3.03466 15.1558C1.59672 13.5162 0.836281 11.391 0.907616 9.21137C0.978951 7.03172 1.87671 4.9608 3.41879 3.41873C4.96086 1.87665 7.03178 0.97889 9.21144 0.907555C11.3911 0.83622 13.5163 1.59665 15.1559 3.0346C16.7955 4.47255 17.8267 6.48033 18.0404 8.65066C18.2541 10.821 17.6343 12.9913 16.3066 14.7215L16.2816 14.7541L16.3107 14.7831L20.7628 19.2372ZM3.07818 9.49999V9.50004C3.07993 11.2027 3.75708 12.8351 4.96102 14.039C6.16497 15.243 7.79737 15.9201 9.50001 15.9219H9.50006C10.7702 15.9219 12.0118 15.5452 13.0679 14.8396C14.1239 14.1339 14.947 13.131 15.4331 11.9575C15.9192 10.7841 16.0463 9.49287 15.7985 8.24715C15.5507 7.00143 14.9391 5.85716 14.041 4.95904C13.1429 4.06093 11.9986 3.4493 10.7529 3.20151C9.50718 2.95372 8.21595 3.0809 7.04251 3.56696C5.86907 4.05301 4.86611 4.87612 4.16046 5.93219C3.45482 6.98826 3.07818 8.22987 3.07818 9.49999Z" fill="#475569" stroke="#475569" stroke-width="0.09375"/>
</svg>
